<?xml version="1.0" encoding="UTF-8" standalone="no"?>
<!DOCTYPE svg PUBLIC "-//W3C//DTD SVG 1.1//EN" "http://www.w3.org/Graphics/SVG/1.1/DTD/svg11.dtd">
<svg xmlns="http://www.w3.org/2000/svg" version="1.1" viewBox="0 0 500 500">
<path fill="#d4dace" d="M 221.78,132.47 Q 236.33,145.82 240.73,164.39 Q 242.23,170.72 242.36,182.74 Q 242.66,211.86 242.50,241.62 A 0.89,0.89 -89.7 0 1 241.61,242.50 Q 213.08,242.50 184.81,242.50 Q 171.87,242.50 165.31,241.10 Q 143.07,236.36 129.06,218.19 Q 114.20,198.90 115.94,174.71 Q 116.68,164.53 120.41,155.32 Q 128.65,134.95 148.31,123.81 Q 164.29,114.77 183.49,116.09 Q 205.57,117.61 221.78,132.47 Z"/>
<path fill="#ffcc34" d="M 275.19,135.19 Q 283.94,126.15 295.33,121.11 Q 304.16,117.20 314.64,116.26 Q 343.23,113.70 363.81,132.80 Q 371.33,139.79 376.14,148.43 Q 386.43,166.92 383.50,188.50 Q 380.73,208.90 365.37,224.12 Q 351.75,237.60 333.65,241.25 Q 327.48,242.50 313.74,242.50 Q 286.45,242.50 258.31,242.50 A 0.81,0.81 45.0 0 1 257.50,241.69 Q 257.50,216.56 257.50,192.25 Q 257.50,175.00 257.77,172.26 Q 259.87,151.00 275.19,135.19 ZM 356.47,151.06 A 11.30 11.30 0.0 0 0 345.17,139.76 A 11.30 11.30 0.0 0 0 333.87,151.06 A 11.30 11.30 0.0 0 0 345.17,162.36 A 11.30 11.30 0.0 0 0 356.47,151.06 ZM 333.67,179.33 A 28.18 28.18 0.0 0 0 305.49,151.15 A 28.18 28.18 0.0 0 0 277.31,179.33 A 28.18 28.18 0.0 0 0 305.49,207.51 A 28.18 28.18 0.0 0 0 333.67,179.33 Z"/>
<path fill="#d4dace" d="M 136.74,367.75 Q 123.68,355.96 118.70,339.74 Q 115.84,330.42 115.87,320.02 Q 115.92,294.43 134.19,275.94 Q 147.14,262.82 165.17,258.90 Q 171.63,257.50 184.44,257.50 Q 212.81,257.50 241.65,257.50 A 0.85,0.85 -90.0 0 1 242.50,258.35 Q 242.50,282.43 242.50,306.75 Q 242.50,323.70 242.21,326.74 Q 240.12,348.72 225.07,364.46 Q 218.08,371.76 209.26,376.56 Q 189.94,387.08 167.56,383.19 Q 150.56,380.23 136.74,367.75 Z"/>
<path fill="#d4dace" d="M 275.44,365.06 Q 257.59,346.94 257.53,320.75 Q 257.45,289.40 257.56,258.06 A 0.50,0.50 -45.0 0 1 258.06,257.56 Q 281.15,257.47 304.25,257.49 Q 323.62,257.50 324.25,257.54 Q 352.47,259.36 369.91,280.90 Q 376.42,288.95 379.90,298.13 Q 384.58,310.47 384.04,323.76 Q 383.63,333.97 380.08,343.26 Q 374.49,357.89 362.28,368.53 Q 346.93,381.90 326.54,383.61 Q 296.21,386.16 275.44,365.06 Z"/>
</svg>
