<?xml version="1.0" encoding="UTF-8" standalone="no"?>
<!DOCTYPE svg PUBLIC "-//W3C//DTD SVG 1.1//EN" "http://www.w3.org/Graphics/SVG/1.1/DTD/svg11.dtd">
<svg xmlns="http://www.w3.org/2000/svg" version="1.1" viewBox="0 0 500 500">
<path fill="#d4dace" d="M 229.33,124.66 Q 242.39,135.83 244.44,152.56 Q 245.23,159.02 245.15,168.00 Q 245.00,184.00 245.00,200.34 A 0.66,0.66 -45.0 0 1 244.34,201.00 Q 229.32,201.00 214.49,201.00 Q 196.28,201.00 194.53,200.78 Q 181.90,199.18 172.56,190.69 Q 156.16,175.76 158.00,153.50 Q 159.18,139.21 169.25,128.49 Q 183.74,113.04 205.25,114.72 Q 218.95,115.79 229.33,124.66 Z"/>
<path fill="#ffcc34" d="M 266.11,128.87 Q 277.68,115.90 295.75,114.75 Q 307.11,114.03 316.61,118.23 Q 325.53,122.18 332.29,130.33 Q 341.70,141.67 342.10,156.72 Q 342.37,166.85 338.14,176.11 Q 329.82,194.31 309.70,199.79 Q 305.25,201.00 298.67,201.00 Q 277.20,201.00 255.68,201.00 A 0.68,0.68 45.0 0 1 255.00,200.32 Q 255.00,182.87 255.00,165.77 Q 255.00,151.93 256.51,146.36 Q 259.13,136.69 266.11,128.87 ZM 323.20,138.38 A 7.68 7.68 0.0 0 0 315.52,130.70 A 7.68 7.68 0.0 0 0 307.84,138.38 A 7.68 7.68 0.0 0 0 315.52,146.06 A 7.68 7.68 0.0 0 0 323.20,138.38 ZM 307.52,157.85 A 19.36 19.36 0.0 0 0 288.16,138.49 A 19.36 19.36 0.0 0 0 268.80,157.85 A 19.36 19.36 0.0 0 0 288.16,177.21 A 19.36 19.36 0.0 0 0 307.52,157.85 Z"/>
<path fill="#d4dace" d="M 172.65,287.85 Q 159.88,276.50 158.09,260.48 Q 156.95,250.31 160.10,240.74 Q 164.85,226.29 178.71,217.72 Q 187.90,212.04 198.75,211.80 Q 221.59,211.29 243.83,211.55 A 1.18,1.18 0.2 0 1 244.99,212.72 Q 245.14,232.20 244.89,250.67 Q 244.74,261.65 243.20,267.18 Q 240.81,275.81 235.44,282.19 Q 219.67,300.92 195.00,298.00 Q 182.38,296.51 172.65,287.85 Z"/>
<path fill="#d4dace" d="M 270.36,288.15 Q 260.44,279.52 256.88,267.45 Q 255.27,261.95 255.11,250.88 Q 254.83,231.50 255.06,212.21 A 0.52,0.51 -90.0 0 1 255.56,211.70 Q 272.09,211.33 288.32,211.52 Q 303.97,211.70 308.26,212.56 Q 320.05,214.93 329.06,223.69 Q 334.31,228.78 337.58,235.37 Q 340.64,241.54 341.67,249.00 Q 343.99,265.92 334.74,279.43 Q 328.83,288.05 320.21,292.90 Q 309.22,299.08 295.50,298.25 Q 280.98,297.37 270.36,288.15 Z"/>
<path fill="#f2f7ee" fill-opacity="0.996" d="M 382.75,345.32 Q 383.20,339.36 383.03,332.62 Q 383.02,332.57 382.87,330.89 Q 382.58,327.81 385.78,328.83 A 0.71,0.67 -81.6 0 1 386.25,329.50 L 386.25,373.05 A 0.93,0.92 89.7 0 1 385.34,373.98 Q 377.24,374.14 370.00,373.75 Q 368.58,373.67 366.77,372.76 Q 365.33,372.04 364.05,370.83 Q 357.51,364.62 358.75,355.25 Q 360.63,341.03 374.39,342.71 Q 376.50,342.97 377.99,343.73 Q 379.68,344.59 381.08,345.95 Q 382.59,347.43 382.75,345.32 ZM 372.13,372.52 Q 375.92,373.40 380.71,372.78 Q 382.75,372.51 382.75,370.45 Q 382.75,362.75 382.75,354.57 Q 382.75,354.51 382.85,352.43 Q 382.98,349.51 381.56,347.69 Q 378.35,343.57 372.26,343.73 Q 368.08,343.84 365.69,346.94 Q 361.43,352.45 362.25,359.75 Q 362.81,364.73 365.23,368.07 Q 367.71,371.50 372.13,372.52 Z"/>
<path fill="#eef1e9" fill-opacity="0.996" d="M 88.25,329.54 Q 89.64,329.47 89.25,330.46 Q 88.02,330.91 88.00,331.75 Q 87.27,365.07 87.75,371.25 Q 88.05,375.11 84.89,373.77 A 0.80,0.75 -79.9 0 1 84.43,373.06 Q 84.12,353.74 84.24,334.41 Q 84.24,334.30 84.07,332.10 Q 83.78,328.44 88.25,329.54 Z"/>
<path fill="#ac9fac" fill-opacity="0.988" d="M 88.25,329.54 L 102.00,329.54 Q 103.20,329.65 103.25,330.71 L 89.25,330.46 Q 89.64,329.47 88.25,329.54 Z"/>
<path fill="#eef1e9" fill-opacity="0.996" d="M 102.00,329.54 Q 104.12,329.57 106.25,329.67 Q 111.83,329.94 115.19,333.56 Q 117.88,336.45 118.43,340.64 Q 119.01,344.99 116.79,348.69 Q 114.85,351.93 111.10,353.53 Q 107.55,355.04 103.48,355.00 Q 101.95,354.98 103.14,355.95 Q 105.49,357.87 107.51,360.69 Q 112.50,367.67 118.88,373.42 Q 119.26,373.76 118.77,373.89 Q 115.83,374.68 113.69,373.06 Q 111.08,371.10 107.98,366.76 Q 105.59,363.43 102.93,360.31 Q 100.00,356.88 99.03,356.27 Q 96.76,354.83 93.25,355.00 Q 91.58,355.08 92.42,354.36 A 1.39,1.05 19.6 0 1 93.31,354.08 Q 101.57,354.34 104.69,353.69 Q 114.72,351.59 114.44,341.81 Q 114.13,331.52 103.25,330.71 Q 103.20,329.65 102.00,329.54 Z"/>
<path fill="#eef1e9" fill-opacity="0.996" d="M 193.01,346.54 Q 193.02,348.44 194.41,347.09 Q 200.79,340.88 209.50,343.00 Q 216.81,344.78 216.90,353.25 Q 217.00,363.37 217.00,372.95 A 0.90,0.89 85.0 0 1 216.27,373.83 Q 213.19,374.35 213.41,372.66 Q 213.50,371.95 213.50,371.82 Q 213.50,364.16 213.50,356.50 Q 213.50,351.75 212.70,349.13 Q 211.79,346.13 209.42,344.59 Q 207.43,343.29 204.34,343.41 Q 197.69,343.66 194.45,349.10 Q 193.00,351.53 192.86,355.72 Q 192.57,364.36 192.98,373.00 A 0.75,0.73 77.3 0 1 192.54,373.71 Q 189.09,375.18 189.33,372.08 Q 189.50,369.98 189.50,369.92 Q 189.49,351.65 189.50,333.38 Q 189.50,333.24 189.40,331.63 Q 189.20,328.25 192.48,329.83 A 0.85,0.73 -79.2 0 1 192.91,330.57 L 193.01,346.54 Z"/>
<rect fill="#f2f7ee" fill-opacity="0.996" x="-1.77" y="-22.21" transform="translate(255.72,351.76) rotate(-0.1)" width="3.54" height="44.42" rx="0.72"/>
<path fill="#f2f7ee" fill-opacity="0.996" d="M 318.71,373.71 A 0.54,0.54 -68.6 0 1 318.41,373.02 Q 325.71,353.25 332.67,333.45 Q 332.69,333.42 333.01,332.69 Q 333.50,331.57 332.82,330.45 A 0.54,0.54 -22.2 0 1 333.16,329.64 Q 334.78,329.26 335.80,329.73 Q 336.56,330.08 337.24,331.63 Q 346.38,352.49 355.70,373.13 A 0.49,0.48 -18.3 0 1 355.36,373.80 Q 352.19,374.54 351.40,372.50 Q 350.63,370.50 349.79,368.52 Q 348.80,366.20 347.66,364.83 Q 343.55,359.86 336.75,359.03 Q 332.33,358.50 328.68,360.46 Q 326.35,361.71 325.01,364.62 Q 323.22,368.52 322.35,372.76 A 1.54,1.06 85.2 0 1 321.88,373.58 Q 320.61,374.52 318.71,373.71 ZM 335.90,357.02 Q 341.13,357.91 345.26,361.26 Q 347.36,362.96 346.27,360.49 Q 341.39,349.45 335.98,337.60 Q 335.78,337.15 335.24,335.73 Q 333.84,331.98 332.57,336.70 Q 329.85,346.74 326.81,357.40 Q 326.45,358.68 327.68,358.17 Q 332.11,356.36 335.90,357.02 Z"/>
<path fill="#f2f7ee" fill-opacity="0.996" d="M 262.94,336.94 Q 262.21,336.70 261.65,336.18 A 0.35,0.32 -34.0 0 1 261.78,335.63 Q 264.12,334.61 265.08,332.21 Q 265.25,331.79 265.43,332.22 Q 266.51,334.76 269.03,335.82 Q 269.45,336.00 269.02,336.15 Q 266.44,337.09 265.58,339.72 Q 265.41,340.22 265.13,339.79 L 263.67,337.50 A 1.41,1.38 81.8 0 0 262.94,336.94 Z"/>
<path fill="#f2f7ee" fill-opacity="0.996" d="M 138.0400,374.9900 A 16.36,15.17 90.0 0 1 122.8700,358.6300 A 16.36,15.17 90.0 0 1 138.0400,342.2700 A 16.36,15.17 90.0 0 1 153.2100,358.6300 A 16.36,15.17 90.0 0 1 138.0400,374.9900 ZM 138.0600,374.1500 A 15.54,11.57 90.0 0 0 149.6300,358.6100 A 15.54,11.57 90.0 0 0 138.0600,343.0700 A 15.54,11.57 90.0 0 0 126.4900,358.6100 A 15.54,11.57 90.0 0 0 138.0600,374.1500 Z"/>
<path fill="#f2f7ee" fill-opacity="0.996" d="M 180.50,371.21 Q 181.08,371.17 181.04,371.75 Q 177.59,374.69 173.00,374.69 Q 162.07,374.68 158.75,364.75 Q 157.05,359.65 158.18,354.52 Q 159.38,349.12 162.94,345.96 Q 167.01,342.35 173.25,342.52 Q 178.10,342.64 182.58,346.05 Q 183.95,347.09 184.00,348.82 Q 184.06,350.85 182.58,350.78 Q 180.79,350.69 180.08,349.05 Q 176.82,341.55 169.31,343.81 Q 164.82,345.17 162.85,350.78 Q 160.81,356.59 161.75,362.29 Q 162.80,368.68 167.00,371.90 Q 172.60,376.20 180.50,371.21 Z"/>
<path fill="#f2f7ee" fill-opacity="0.996" d="M 246.37,370.34 Q 247.30,369.24 248.21,368.12 Q 248.66,367.55 248.77,368.11 Q 248.82,368.35 248.66,368.67 Q 247.47,371.07 245.41,372.55 Q 243.70,373.78 240.83,374.27 Q 230.76,376.02 225.90,369.18 Q 221.14,362.48 223.30,354.18 Q 225.69,344.97 237.00,342.50 Q 239.24,342.01 242.40,342.92 Q 245.47,343.80 247.00,345.52 Q 249.24,348.03 247.99,351.30 Q 247.14,353.54 244.63,355.46 Q 238.06,360.50 228.58,360.22 Q 226.31,360.16 226.73,362.39 Q 227.55,366.74 230.26,369.76 Q 232.88,372.67 236.57,373.34 Q 240.46,374.04 244.19,372.15 Q 245.34,371.56 246.37,370.34 ZM 244.39,347.12 Q 243.35,344.02 240.25,343.50 Q 235.03,342.62 231.10,346.36 Q 226.28,350.95 226.31,357.66 A 1.61,1.61 3.2 0 0 227.73,359.25 Q 236.62,360.28 242.78,354.04 Q 245.71,351.07 244.39,347.12 Z"/>
<path fill="#eef1e9" fill-opacity="0.996" d="M 278.24,347.20 Q 278.77,346.92 279.59,346.09 Q 280.32,345.33 280.92,344.95 Q 288.20,340.34 295.69,343.81 Q 298.36,345.05 299.79,347.88 Q 300.74,349.77 300.85,353.30 Q 301.15,362.60 301.01,371.91 Q 301.00,372.04 301.07,372.59 Q 301.24,374.12 298.64,373.91 A 1.42,1.41 3.2 0 1 297.34,372.46 Q 297.64,362.97 297.50,352.50 Q 297.41,345.40 291.84,343.78 Q 287.49,342.51 282.99,344.77 Q 277.88,347.33 277.02,353.04 Q 277.02,353.08 277.01,362.99 Q 277.01,367.96 276.95,372.94 A 0.96,0.87 76.6 0 1 276.52,373.72 Q 275.14,374.52 273.73,373.71 A 0.94,0.79 -77.8 0 1 273.32,372.93 L 273.49,344.15 A 0.78,0.76 84.4 0 1 274.09,343.40 Q 277.66,342.59 276.85,346.14 Q 276.40,348.17 278.24,347.20 Z"/>
<path fill="#ac9fac" fill-opacity="0.988" d="M 406.50,342.54 L 406.00,343.21 Q 403.34,342.71 400.75,343.46 L 400.75,342.79 L 406.50,342.54 Z"/>
<path fill="#f2f7ee" fill-opacity="0.996" d="M 406.50,342.54 Q 410.12,342.41 413.23,344.02 Q 414.30,344.57 414.73,345.51 Q 415.62,347.46 413.25,347.36 Q 412.37,347.32 411.42,346.65 Q 408.81,344.78 406.00,343.21 L 406.50,342.54 Z"/>
<path fill="#eef1e9" fill-opacity="0.996" d="M 400.75,342.79 L 400.75,343.46 Q 395.45,345.48 396.16,350.45 Q 396.42,352.29 397.94,353.31 Q 399.43,354.32 401.25,354.74 Q 405.98,355.84 410.65,357.20 Q 418.39,359.45 416.75,367.25 Q 416.29,369.46 414.53,371.19 Q 413.16,372.53 410.82,373.49 Q 401.76,377.18 393.58,371.16 Q 391.07,369.32 392.73,367.20 A 0.98,0.91 -67.0 0 1 393.56,366.83 Q 395.12,367.01 395.91,368.58 Q 397.33,371.40 399.89,372.78 Q 402.22,374.04 405.28,373.86 Q 409.80,373.59 412.75,370.19 Q 414.63,368.02 414.46,365.74 Q 414.31,363.80 412.86,362.39 Q 411.85,361.40 409.74,360.72 Q 406.15,359.57 400.75,358.50 Q 398.95,358.14 396.81,357.04 Q 394.67,355.92 393.60,354.45 Q 391.76,351.91 392.50,349.00 Q 393.97,343.25 400.75,342.79 Z"/>
<rect fill="#eef1e9" fill-opacity="0.996" x="263.50" y="343.26" width="3.50" height="30.74" rx="0.63"/>
<path fill="#ac9fac" fill-opacity="0.988" d="M 181.04,371.75 Q 181.08,371.17 180.50,371.21 L 183.09,368.40 A 0.63,0.24 -46.7 0 1 183.70,368.10 Q 183.82,368.22 183.79,368.54 Q 183.76,368.73 183.63,368.94 Q 182.57,370.55 181.04,371.75 Z"/>
<rect fill="#f1c225" fill-opacity="0.992" x="-0.62" y="-5.84" transform="translate(434.38,394.16) rotate(0.1)" width="1.24" height="11.68" rx="0.59"/>
<path fill="#f1c225" fill-opacity="0.992" d="M 247.55,392.83 Q 245.90,394.45 247.35,395.24 A 1.34,0.86 14.2 0 1 247.98,395.91 Q 248.81,398.50 246.68,399.57 Q 245.84,400.00 244.23,400.00 Q 243.03,400.00 241.71,400.00 A 0.96,0.96 -0.3 0 1 240.75,399.04 L 240.75,390.20 A 0.98,0.97 -4.9 0 1 241.56,389.24 Q 246.40,388.43 247.82,391.09 A 1.48,1.48 -36.2 0 1 247.55,392.83 ZM 246.4239,391.7076 A 1.29 1.29 0.0 0 0 245.2151,390.3413 L 243.3186,390.2253 A 1.29 1.29 0.0 0 0 241.9523,391.4341 L 241.8961,392.3524 A 1.29 1.29 0.0 0 0 243.1049,393.7187 L 245.0014,393.8347 A 1.29 1.29 0.0 0 0 246.3677,392.6259 L 246.4239,391.7076 ZM 246.5933,396.0035 A 1.17 1.17 0.0 0 0 245.3617,394.8985 L 242.9852,395.0272 A 1.17 1.17 0.0 0 0 241.8802,396.2588 L 241.9667,397.8565 A 1.17 1.17 0.0 0 0 243.1983,398.9615 L 245.5748,398.8328 A 1.17 1.17 0.0 0 0 246.6798,397.6012 L 246.5933,396.0035 Z"/>
<path fill="#e4b526" fill-opacity="0.992" d="M 295.04,393.60 Q 296.39,391.73 297.61,389.79 Q 298.65,388.13 298.68,389.32 A 3.08,3.00 -30.6 0 1 298.25,390.91 Q 295.22,395.84 295.42,398.48 Q 295.48,399.25 295.40,399.52 Q 295.14,400.43 294.36,399.83 A 1.08,0.88 -74.1 0 1 294.01,399.01 Q 294.03,397.78 293.99,396.55 Q 293.95,395.35 293.28,394.26 Q 292.10,392.32 291.02,390.32 Q 290.77,389.87 290.81,389.51 Q 290.88,388.86 291.49,389.08 A 1.50,0.55 66.0 0 1 292.16,389.77 L 294.46,393.60 A 0.36,0.34 -43.0 0 0 295.04,393.60 Z"/>
<path fill="#e4b526" fill-opacity="0.992" d="M 340.70,394.72 Q 341.97,395.43 342.05,396.79 Q 342.12,397.90 341.13,398.76 Q 338.64,400.94 335.05,399.85 A 0.70,0.69 8.5 0 1 334.55,399.19 L 334.55,389.82 A 0.66,0.66 82.6 0 1 335.04,389.18 Q 337.43,388.55 339.06,389.19 Q 343.30,390.84 340.58,394.13 A 0.40,0.38 34.9 0 0 340.70,394.72 ZM 340.0697,391.5907 A 1.36 1.36 0.0 0 0 338.6792,390.2619 L 337.0396,390.2991 A 1.36 1.36 0.0 0 0 335.7108,391.6896 L 335.7303,392.5493 A 1.36 1.36 0.0 0 0 337.1208,393.8781 L 338.7604,393.8409 A 1.36 1.36 0.0 0 0 340.0892,392.4504 L 340.0697,391.5907 ZM 336.19,398.81 Q 339.43,399.78 340.61,397.30 Q 341.50,395.42 339.43,395.17 Q 335.38,394.69 335.86,397.01 A 1.54,1.25 -42.7 0 1 335.73,397.91 Q 335.41,398.58 336.19,398.81 Z"/>
<ellipse fill="#cf9e29" fill-opacity="0.996" cx="0.00" cy="0.00" transform="translate(364.43,389.72) rotate(80.0)" rx="0.74" ry="0.60"/>
<path fill="#f1c225" fill-opacity="0.992" d="M 415.0210,400.2188 A 5.68,5.06 91.2 0 1 410.0811,394.4340 A 5.68,5.06 91.2 0 1 415.2590,388.8612 A 5.68,5.06 91.2 0 1 420.1989,394.6460 A 5.68,5.06 91.2 0 1 415.0210,400.2188 ZM 415.0875,399.0988 A 4.52,3.65 91.3 0 0 418.8391,394.6628 A 4.52,3.65 91.3 0 0 415.2925,390.0612 A 4.52,3.65 91.3 0 0 411.5409,394.4972 A 4.52,3.65 91.3 0 0 415.0875,399.0988 Z"/>
<ellipse fill="#cf9e29" fill-opacity="0.996" cx="0.00" cy="0.00" transform="translate(439.41,389.71) rotate(69.0)" rx="0.75" ry="0.62"/>
<path fill="#e4b526" fill-opacity="0.992" d="M 282.57,398.74 Q 283.31,398.87 283.84,399.33 Q 284.25,399.68 283.72,399.84 Q 279.76,400.99 280.25,396.50 Q 280.49,394.31 279.74,392.70 A 0.77,0.55 59.9 0 1 279.82,391.87 L 280.11,391.64 Q 280.47,391.34 280.58,391.09 Q 281.35,389.30 281.93,391.21 A 0.91,0.85 87.6 0 0 282.54,391.81 Q 285.65,392.66 282.53,392.97 A 0.76,0.66 -4.0 0 0 281.84,393.66 L 281.95,398.19 A 0.75,0.53 6.4 0 0 282.57,398.74 Z"/>
<path fill="#f1c225" fill-opacity="0.992" d="M 254.3444,400.1611 A 4.27,3.78 93.7 0 1 250.8479,395.6561 A 4.27,3.78 93.7 0 1 254.8956,391.6389 A 4.27,3.78 93.7 0 1 258.3921,396.1439 A 4.27,3.78 93.7 0 1 254.3444,400.1611 ZM 254.6390,399.0896 A 3.12,2.48 89.1 0 0 257.0697,395.9310 A 3.12,2.48 89.1 0 0 254.5410,392.8504 A 3.12,2.48 89.1 0 0 252.1103,396.0090 A 3.12,2.48 89.1 0 0 254.6390,399.0896 Z"/>
<path fill="#f1c225" fill-opacity="0.992" d="M 264.9464,400.2081 A 4.26,3.82 88.3 0 1 261.0017,396.0633 A 4.26,3.82 88.3 0 1 264.6936,391.6919 A 4.26,3.82 88.3 0 1 268.6383,395.8367 A 4.26,3.82 88.3 0 1 264.9464,400.2081 ZM 264.8785,399.1388 A 3.17,2.39 88.4 0 0 267.1791,395.9033 A 3.17,2.39 88.4 0 0 264.7015,392.8012 A 3.17,2.39 88.4 0 0 262.4009,396.0367 A 3.17,2.39 88.4 0 0 264.8785,399.1388 Z"/>
<path fill="#f1c225" fill-opacity="0.992" d="M 271.97,395.18 Q 269.93,393.12 273.25,391.75 Q 274.42,391.27 276.48,392.11 A 0.50,0.35 30.2 0 1 276.78,392.76 Q 276.45,393.05 275.50,393.00 Q 271.11,392.75 273.56,394.74 Q 273.95,395.06 275.06,395.54 Q 275.80,395.86 276.43,396.36 A 1.18,1.18 17.1 0 1 276.87,397.19 Q 277.20,400.89 272.79,399.82 Q 269.47,399.02 273.14,399.00 Q 273.38,399.00 273.85,399.06 Q 275.57,399.28 275.69,397.81 A 0.85,0.75 18.9 0 0 275.26,397.06 Q 274.43,396.58 273.56,396.18 Q 272.46,395.68 271.97,395.18 Z"/>
<path fill="#f1c225" fill-opacity="0.992" d="M 304.6424,400.1799 A 4.28,3.75 89.7 0 1 300.8701,395.9196 A 4.28,3.75 89.7 0 1 304.5976,391.6201 A 4.28,3.75 89.7 0 1 308.3699,395.8804 A 4.28,3.75 89.7 0 1 304.6424,400.1799 ZM 304.5171,399.0786 A 3.13,2.48 91.7 0 0 307.0889,396.0236 A 3.13,2.48 91.7 0 0 304.7029,392.8214 A 3.13,2.48 91.7 0 0 302.1311,395.8764 A 3.13,2.48 91.7 0 0 304.5171,399.0786 Z"/>
<path fill="#f1c225" fill-opacity="0.992" d="M 316.50,399.46 Q 316.50,399.05 316.21,398.75 Q 317.45,396.30 317.00,393.50 Q 316.67,391.40 317.83,391.99 A 0.85,0.78 -77.4 0 1 318.27,392.75 L 318.10,399.31 A 0.60,0.53 -89.5 0 1 317.57,399.90 Q 317.03,399.89 316.50,399.46 Z"/>
<path fill="#e4b526" fill-opacity="0.992" d="M 324.04,393.50 Q 323.96,393.01 323.50,392.79 L 324.61,392.03 A 1.35,0.88 25.8 0 1 325.56,391.91 Q 328.18,392.51 324.04,393.50 Z"/>
<path fill="#e4b526" fill-opacity="0.992" d="M 347.13,399.84 Q 345.00,399.87 345.00,397.63 Q 345.00,394.75 345.02,392.75 Q 345.04,391.34 345.83,391.96 A 1.21,0.96 -75.9 0 1 346.21,392.80 Q 346.29,394.53 346.22,396.25 Q 346.07,399.95 349.34,398.75 A 1.11,1.08 -89.1 0 0 350.00,398.09 Q 350.81,395.91 350.46,393.51 Q 350.20,391.70 351.48,392.12 A 0.74,0.67 -82.0 0 1 351.95,392.81 L 352.01,399.26 A 0.52,0.51 89.4 0 1 351.51,399.78 L 347.13,399.84 Z"/>
<path fill="#e4b526" fill-opacity="0.992" d="M 356.18,395.48 Q 353.73,394.25 355.87,392.48 Q 356.81,391.71 357.96,391.71 Q 359.19,391.70 360.24,392.22 Q 361.85,393.00 360.06,393.00 Q 353.45,393.00 359.88,396.07 Q 361.61,396.89 360.69,398.57 Q 359.12,401.43 355.72,399.81 Q 353.82,398.91 355.92,398.94 Q 362.13,399.01 357.65,396.23 Q 357.59,396.19 356.18,395.48 Z"/>
<path fill="#e4b526" fill-opacity="0.992" d="M 370.95,392.28 Q 375.25,390.41 375.94,397.07 Q 376.06,398.30 375.68,399.48 Q 375.42,400.26 374.73,399.95 A 0.92,0.71 -81.9 0 1 374.30,399.19 L 374.20,394.57 A 1.60,1.15 -72.6 0 0 373.90,393.66 Q 372.73,392.21 370.97,393.29 A 1.41,1.27 85.7 0 0 370.40,394.03 Q 369.70,396.19 370.04,398.49 Q 370.29,400.15 369.28,399.88 A 0.78,0.64 -85.8 0 1 368.79,399.19 Q 368.69,396.47 368.54,393.76 Q 368.41,391.38 370.07,392.24 A 1.07,0.97 44.9 0 0 370.95,392.28 Z"/>
<path fill="#f1c225" fill-opacity="0.992" d="M 380.73,398.35 A 1.91,1.89 -23.3 0 0 382.27,398.95 Q 385.89,398.67 385.16,399.50 Q 384.70,400.02 383.69,400.05 Q 378.36,400.20 378.94,395.56 Q 379.19,393.49 380.38,392.39 Q 382.10,390.81 384.50,392.50 Q 386.00,393.56 385.62,395.51 A 0.65,0.63 -84.5 0 1 385.00,396.04 L 381.25,396.04 A 1.03,0.69 10.3 0 0 380.45,396.39 Q 379.83,397.37 380.73,398.35 ZM 380.79,393.73 Q 379.11,395.33 383.30,394.92 A 0.91,0.91 -9.0 0 0 384.10,393.82 Q 383.82,392.53 382.24,392.92 Q 381.42,393.12 380.79,393.73 Z"/>
<path fill="#f1c225" fill-opacity="0.992" d="M 388.76,392.73 Q 391.75,390.70 393.22,392.04 Q 394.22,392.95 392.86,392.98 Q 389.11,393.04 389.85,394.23 Q 390.15,394.71 391.49,395.34 Q 392.71,395.92 393.81,396.69 Q 395.74,398.03 393.19,399.44 Q 390.97,400.66 388.75,399.66 A 0.68,0.41 26.1 0 1 388.30,398.96 Q 388.47,398.66 389.37,398.95 Q 390.24,399.24 391.15,399.07 Q 393.44,398.64 392.49,397.21 A 1.51,0.38 21.3 0 0 391.70,396.65 L 388.80,395.22 Q 386.65,394.17 388.76,392.73 Z"/>
<path fill="#f1c225" fill-opacity="0.992" d="M 398.17,393.27 Q 397.36,394.53 399.03,394.84 Q 402.43,395.46 402.03,398.44 A 1.22,1.19 76.2 0 1 401.55,399.25 Q 399.91,400.43 397.74,400.09 A 1.42,1.30 -13.8 0 1 396.90,399.63 Q 395.96,398.52 397.94,398.88 Q 398.62,399.01 399.08,398.98 Q 402.45,398.77 400.20,396.89 Q 399.80,396.55 398.50,396.11 Q 397.04,395.61 396.65,394.06 A 1.13,1.09 -34.7 0 1 396.83,393.15 Q 398.54,390.74 401.49,392.09 Q 402.29,392.46 401.82,392.75 Q 401.38,393.03 399.66,392.66 A 1.44,1.43 -67.2 0 0 398.17,393.27 Z"/>
<path fill="#e4b526" fill-opacity="0.992" d="M 427.97,393.14 Q 424.86,392.17 424.71,396.60 Q 424.69,397.30 424.73,397.99 Q 424.89,400.43 423.43,399.75 A 0.84,0.70 -78.5 0 1 423.02,398.99 L 423.19,393.56 A 2.57,0.90 -15.0 0 1 425.19,392.19 Q 430.91,390.41 430.06,396.51 Q 429.90,397.61 430.09,398.69 A 1.23,0.94 65.1 0 1 429.89,399.59 Q 428.82,400.88 428.90,398.50 Q 428.97,396.12 428.53,393.79 A 0.85,0.82 -86.7 0 0 427.97,393.14 Z"/>
<path fill="#e4b526" fill-opacity="0.992" d="M 447.95,392.98 Q 446.84,392.84 445.79,393.15 A 0.78,0.76 85.6 0 0 445.24,393.81 Q 445.07,395.26 445.00,399.00 Q 444.97,400.76 443.86,399.84 A 1.14,1.01 -72.3 0 1 443.49,399.00 L 443.55,392.82 A 0.57,0.53 -3.0 0 1 444.07,392.29 Q 444.84,392.21 446.44,391.94 Q 450.89,391.17 450.42,395.77 Q 450.25,397.37 450.13,398.99 Q 450.00,400.77 449.26,399.68 A 1.50,1.08 -66.4 0 1 449.06,398.75 Q 449.32,396.07 448.58,393.53 A 0.77,0.74 85.1 0 0 447.95,392.98 Z"/>
<path fill="#f1c225" fill-opacity="0.992" d="M 455.26,396.56 Q 455.08,399.68 458.92,398.84 Q 460.53,398.49 460.04,399.34 A 1.46,1.08 0.0 0 1 459.27,399.91 Q 454.82,401.23 453.75,397.25 Q 452.57,392.86 456.30,391.96 Q 457.93,391.56 459.07,392.37 Q 460.47,393.35 460.36,395.31 A 0.60,0.58 -90.0 0 1 459.81,395.87 L 455.80,396.07 A 0.57,0.52 0.5 0 0 455.26,396.56 ZM 458.9748,393.8914 A 0.89 0.89 0.0 0 0 458.0498,393.0378 L 455.9115,393.1237 A 0.89 0.89 0.0 0 0 455.0580,394.0487 L 455.0652,394.2286 A 0.89 0.89 0.0 0 0 455.9902,395.0822 L 458.1285,394.9963 A 0.89 0.89 0.0 0 0 458.9820,394.0713 L 458.9748,393.8914 Z"/>
<path fill="#e4b526" fill-opacity="0.992" d="M 316.21,398.75 Q 316.50,399.05 316.50,399.46 Q 311.89,401.66 311.50,396.75 Q 311.41,395.62 311.54,392.57 A 0.66,0.55 89.2 0 1 312.05,391.94 Q 312.49,391.91 312.79,392.21 Q 313.00,392.43 312.99,392.86 Q 312.96,395.40 313.05,397.94 A 0.95,0.84 -77.5 0 0 313.48,398.72 Q 314.74,399.42 316.21,398.75 Z"/>
<path fill="#f1c225" fill-opacity="0.992" d="M 323.50,392.79 Q 323.96,393.01 324.04,393.50 Q 322.81,395.68 323.33,398.23 Q 323.65,399.76 322.69,399.85 A 0.59,0.51 84.6 0 1 322.13,399.32 Q 321.91,397.14 321.97,394.95 Q 321.99,394.43 321.92,393.56 Q 321.72,391.14 323.50,392.79 Z"/>
<rect fill="#f1c225" fill-opacity="0.992" x="-0.63" y="-4.00" transform="translate(364.38,396.00) rotate(0.1)" width="1.26" height="8.00" rx="0.60"/>
<rect fill="#ffcc34" x="438.74" y="391.99" width="1.26" height="8.00" rx="0.52"/>
<rect fill="#cf9e29" fill-opacity="0.996" x="134.00" y="395.01" width="94.98" height="1.24" rx="0.49"/>
</svg>
